<svg xmlns="http://www.w3.org/2000/svg" width="1200" height="256"><g fill="none" fill-rule="evenodd"><path fill="#F2F3F4" d="M0 0h1200v256H0z"/><path fill="#060A10" fill-rule="nonzero" d="M686.15 98.35c0-1 .36-1.87 1.08-2.6a3.5 3.5 0 0 1 2.58-1.09c1 0 1.86.36 2.57 1.09.7.73 1.05 1.6 1.05 2.6 0 1.03-.35 1.91-1.05 2.64a3.44 3.44 0 0 1-2.57 1.09c-1 0-1.87-.37-2.58-1.1a3.62 3.62 0 0 1-1.08-2.63zm6.79 14.7v20.07c0 3.07.05 5 .14 5.8.1.8.43 1.4 1.02 1.83.59.42 1.63.63 3.13.63h.74V143h-15.5v-1.62h1.19c1.66 0 2.75-.24 3.25-.72s.8-1.05.88-1.72c.08-.67.12-2.6.12-5.82v-8.72c0-3.37-.16-5.44-.47-6.19-.32-.75-.74-1.21-1.27-1.4a9.28 9.28 0 0 0-2.76-.28h-.95v-1.62c4.17-.42 7.4-1.04 9.7-1.86h.78zm16.49 0h.35a15.34 15.34 0 0 1 1.02 6.04 17 17 0 0 1 5.08-4.53c1.82-1 3.77-1.51 5.85-1.51 2.37 0 4.3.54 5.77 1.61a8.52 8.52 0 0 1 3.1 4.86 20.63 20.63 0 0 1 5.48-4.86 11.37 11.37 0 0 1 5.73-1.61c2.22 0 4.11.51 5.66 1.54 1.54 1.04 2.48 2.2 2.8 3.52.34 1.31.5 3.43.5 6.36v8.65c0 3.35.07 5.4.2 6.12.12.72.5 1.26 1.12 1.62.62.35 1.78.52 3.46.52V143h-14.38v-1.62c1.53 0 2.6-.17 3.22-.5.62-.35 1-.86 1.14-1.55.14-.7.21-2.76.21-6.2v-9.6c0-1.95-.1-3.42-.33-4.4a4.34 4.34 0 0 0-1.74-2.53 5.94 5.94 0 0 0-3.66-1.06c-1.52 0-3.05.52-4.58 1.55a19.65 19.65 0 0 0-4.63 4.68v11.35c0 3.07.04 5 .13 5.78.08.79.4 1.4.98 1.83.57.44 1.6.65 3.08.65V143h-13.93v-1.62c1.57 0 2.67-.16 3.3-.49.61-.33 1-.83 1.15-1.51.15-.68.23-2.77.23-6.26v-7.98c0-2.53-.1-4.36-.3-5.5-.2-1.14-.8-2.11-1.8-2.92-1.02-.8-2.27-1.21-3.77-1.21-1.45 0-2.94.47-4.45 1.4a19.99 19.99 0 0 0-4.62 4.22v12c0 3.16.05 5.12.14 5.9.1.77.44 1.36 1.05 1.76.61.4 1.7.6 3.27.6V143h-14.1v-1.62c1.55 0 2.64-.17 3.26-.5.62-.35 1-.86 1.14-1.54.14-.68.21-2.75.21-6.22v-8.61c0-3.28-.05-5.3-.16-6.03-.1-.74-.47-1.3-1.09-1.67-.62-.38-1.74-.56-3.35-.56v-1.62c3.32-.33 6.08-.86 8.26-1.58zm56.56 0h.95c.4 1.3.6 2.9.6 4.74a15.5 15.5 0 0 1 4.83-3.57 13.03 13.03 0 0 1 5.47-1.17c3.99 0 7.3 1.4 9.95 4.2 2.65 2.8 3.97 6.5 3.97 11.09 0 4.5-1.33 8.26-3.99 11.28-2.66 3.03-6.15 4.54-10.5 4.54a12.6 12.6 0 0 1-5.1-1.07 15.8 15.8 0 0 1-4.63-3.18v10.93c0 3.33.07 5.36.2 6.08.12.73.5 1.27 1.1 1.64.61.36 1.75.54 3.41.54v1.62h-15.04v-1.62h1.05c1.66 0 2.75-.24 3.25-.72s.8-1.05.88-1.72c.08-.67.12-2.6.12-5.82v-26.16c0-3.07-.04-5-.12-5.8-.08-.8-.42-1.4-1-1.83-.59-.42-1.63-.63-3.13-.63h-1.05v-1.62a58.8 58.8 0 0 0 8.78-1.75zm1.55 24.54a14.13 14.13 0 0 0 4.03 3.5 9.12 9.12 0 0 0 4.48 1.17c2.65 0 4.96-1.13 6.92-3.4 1.97-2.28 2.96-5.9 2.96-10.87 0-4.31-.95-7.54-2.85-9.67a8.8 8.8 0 0 0-6.79-3.2c-1.61 0-3.15.41-4.6 1.23a14.45 14.45 0 0 0-4.15 3.73v17.5zm39.06-17.2a12 12 0 0 1 3.88-5.23c1.8-1.41 3.55-2.11 5.26-2.11 1.55 0 2.77.48 3.66 1.44.89.96 1.33 1.94 1.33 2.95a2.5 2.5 0 0 1-.68 1.76 2.2 2.2 0 0 1-1.67.74c-1.17 0-2.07-.87-2.67-2.6-.43-1.18-1.06-1.76-1.9-1.76-1.01 0-2.22.68-3.62 2.05a9.52 9.52 0 0 0-2.71 4.28c-.4 1.47-.6 3.5-.6 6.08v5.13c0 3.07.04 5 .12 5.8.09.8.42 1.4 1 1.83.6.42 1.63.63 3.13.63h.99V143h-15.3v-1.62h.74c1.41 0 2.41-.2 3.01-.58.6-.38.96-.93 1.07-1.63.12-.7.18-2.72.18-6.05V125c0-3.1-.04-5.03-.12-5.82a2.48 2.48 0 0 0-1-1.83c-.6-.43-1.64-.65-3.14-.65h-.73v-1.58c2.2-.26 5.08-.95 8.64-2.07.68 1.85 1.06 4.3 1.13 7.34zm15.57 8.16c0-4.4 1.48-8.1 4.43-11.06a14.78 14.78 0 0 1 10.9-4.44 14.8 14.8 0 0 1 10.94 4.46 15.06 15.06 0 0 1 4.43 11.04c0 4.85-1.5 8.67-4.5 11.44-3 2.78-6.63 4.17-10.87 4.17-4.24 0-7.86-1.41-10.84-4.24-3-2.82-4.49-6.61-4.49-11.37zm5.84.18c0 5.1.83 8.69 2.5 10.74 1.66 2.05 4 3.07 7 3.07 3.06 0 5.41-1.02 7.04-3.07s2.44-5.63 2.44-10.74c0-5.07-.8-8.68-2.42-10.83-1.62-2.16-3.97-3.24-7.07-3.24-3.07 0-5.42 1.08-7.05 3.22-1.63 2.15-2.44 5.76-2.44 10.85zm42.96 15.43h-2.04l-10.23-23.1c-1-2.22-1.8-3.64-2.39-4.25-.59-.61-1.55-.94-2.88-.99v-1.61h13v1.61c-1.42 0-2.4.12-2.93.36-.53.23-.8.68-.8 1.33 0 .52.48 1.77 1.42 3.76l7.76 17.48 7-15.58c1.1-2.48 1.65-4.1 1.65-4.85 0-1.57-1.17-2.4-3.51-2.5v-1.61h9.7v1.61c-1.2.07-2.2.57-3 1.5-.81.92-1.94 3-3.4 6.24l-9.35 20.6zm42.93-20.21h-20.08c-.1 1.38-.14 2.4-.14 3.09 0 5.06.8 8.86 2.37 11.4 1.59 2.55 3.95 3.82 7.09 3.82 4.26 0 7.29-1.9 9.07-5.73h1.69a9.83 9.83 0 0 1-4.47 5.6 13.8 13.8 0 0 1-7.28 2.03c-2.43 0-4.74-.62-6.9-1.85a14.75 14.75 0 0 1-5.33-5.22c-1.38-2.25-2.07-4.98-2.07-8.19 0-4.54 1.33-8.32 4-11.34a12.84 12.84 0 0 1 10.02-4.51c3.78 0 6.7 1.15 8.76 3.44 2.06 2.3 3.15 4.78 3.27 7.46zm-6.16-1.41c.07-.54.11-1.02.11-1.44 0-2.06-.6-3.66-1.81-4.8a6.24 6.24 0 0 0-4.45-1.7c-4.26 0-6.8 2.64-7.63 7.94h13.78zm35.93-5.27v-11.25c0-3.07-.04-5-.12-5.8-.08-.8-.42-1.41-1-1.83-.59-.43-1.63-.64-3.13-.64h-.74v-1.61c2.84-.07 5.94-.57 9.32-1.48h.74v38.7c0 3.36.05 5.4.17 6.12.12.73.49 1.27 1.11 1.62.62.35 1.77.53 3.46.53v1.62c-3.4.07-6.42.37-9.07.91-.28-1.1-.42-2.84-.42-5.2a19.3 19.3 0 0 1-5.36 3.9c-1.84.87-3.75 1.3-5.71 1.3-3.73 0-6.95-1.5-9.65-4.5a15.7 15.7 0 0 1-4.06-10.9c0-4.69 1.38-8.48 4.14-11.37a13.2 13.2 0 0 1 9.88-4.34c1.95 0 3.79.35 5.52 1.05 1.74.7 3.38 1.76 4.92 3.17zm0 2.03a18.11 18.11 0 0 0-4.65-3c-1.56-.67-3.13-1-4.7-1a8.42 8.42 0 0 0-6.62 3.06c-1.77 2.03-2.66 5.36-2.66 9.98 0 4.69.9 8.14 2.73 10.37a8.37 8.37 0 0 0 6.73 3.34c1.78 0 3.43-.42 4.96-1.26a13.8 13.8 0 0 0 4.21-3.8V119.3zm12.98 6.5h17.26v5.32h-17.26v-5.31zm28.9-12.75h.94c.4 1.3.6 2.9.6 4.74a15.5 15.5 0 0 1 4.84-3.57 13.03 13.03 0 0 1 5.46-1.17c3.99 0 7.3 1.4 9.95 4.2 2.65 2.8 3.97 6.5 3.97 11.09 0 4.5-1.33 8.26-3.99 11.29-2.66 3.02-6.15 4.53-10.49 4.53a12.6 12.6 0 0 1-5.12-1.07 15.8 15.8 0 0 1-4.62-3.18v10.93c0 3.33.07 5.36.2 6.08.12.73.5 1.27 1.1 1.64.61.36 1.75.54 3.41.54v1.62h-15.04v-1.62h1.05c1.66 0 2.75-.24 3.25-.72s.8-1.05.88-1.72c.08-.67.12-2.6.12-5.82v-26.16c0-3.07-.04-5-.12-5.8-.08-.8-.41-1.4-1-1.83-.59-.42-1.63-.63-3.13-.63h-1.05v-1.62a58.8 58.8 0 0 0 8.78-1.75zm1.54 24.54a14.13 14.13 0 0 0 4.03 3.5 9.12 9.12 0 0 0 4.48 1.17c2.65 0 4.96-1.13 6.93-3.4 1.96-2.28 2.95-5.9 2.95-10.87 0-4.31-.95-7.54-2.85-9.67a8.8 8.8 0 0 0-6.78-3.2c-1.62 0-3.16.41-4.61 1.23a14.45 14.45 0 0 0-4.15 3.73v17.5zm39.06-17.2a12 12 0 0 1 3.89-5.23c1.79-1.41 3.54-2.11 5.25-2.11 1.55 0 2.77.48 3.66 1.44.89.96 1.33 1.94 1.33 2.95a2.5 2.5 0 0 1-.68 1.76 2.2 2.2 0 0 1-1.67.74c-1.17 0-2.06-.87-2.67-2.6-.43-1.18-1.06-1.76-1.9-1.76-1.01 0-2.22.68-3.62 2.05a9.52 9.52 0 0 0-2.71 4.28c-.4 1.47-.6 3.5-.6 6.08v5.13c0 3.07.04 5 .12 5.8.09.8.42 1.4 1 1.83.6.42 1.64.63 3.14.63h.98V143h-15.3v-1.62h.75c1.4 0 2.4-.2 3-.58.6-.38.96-.93 1.07-1.63.12-.7.18-2.72.18-6.05V125c0-3.1-.04-5.03-.12-5.82a2.48 2.48 0 0 0-1-1.83c-.6-.43-1.63-.65-3.13-.65h-.74v-1.58c2.2-.26 5.08-.95 8.65-2.07.68 1.85 1.05 4.3 1.12 7.34zm19.09-22.04c0-1 .36-1.87 1.07-2.6a3.5 3.5 0 0 1 2.59-1.09c1 0 1.86.36 2.56 1.09.7.73 1.06 1.6 1.06 2.6 0 1.03-.35 1.91-1.06 2.64a3.44 3.44 0 0 1-2.56 1.09c-1.01 0-1.87-.37-2.59-1.1a3.62 3.62 0 0 1-1.07-2.63zm6.79 14.7v20.07c0 3.07.04 5 .14 5.8.09.8.43 1.4 1.02 1.83.58.42 1.62.63 3.12.63h.74V143h-15.5v-1.62h1.2c1.66 0 2.74-.24 3.25-.72.5-.48.8-1.05.87-1.72.09-.67.13-2.6.13-5.82v-8.72c0-3.37-.16-5.44-.48-6.19-.31-.75-.73-1.21-1.26-1.4a9.28 9.28 0 0 0-2.76-.28h-.95v-1.62c4.17-.42 7.4-1.04 9.7-1.86h.78zm16.3 0h.96c.54 1.45.84 3.43.91 5.94a18.4 18.4 0 0 1 5.31-4.47 12.2 12.2 0 0 1 5.8-1.47c2.3 0 4.18.48 5.64 1.44a6.48 6.48 0 0 1 2.83 3.53c.43 1.4.64 3.43.64 6.1v9c0 3.33.05 5.36.17 6.08a2.2 2.2 0 0 0 1.1 1.64c.63.36 1.77.54 3.44.54V143h-14.73v-1.62h.66c1.7 0 2.8-.24 3.3-.74.52-.49.82-1.06.89-1.72.07-.65.1-2.59.1-5.8v-9.28c0-2.27-.1-3.9-.33-4.87a4.56 4.56 0 0 0-1.8-2.58 5.9 5.9 0 0 0-3.7-1.13c-1.71 0-3.35.51-4.9 1.53a16.28 16.28 0 0 0-4.42 4.59v11.74c0 3.33.07 5.36.2 6.08.12.73.5 1.27 1.12 1.64.62.36 1.77.54 3.46.54V143h-14.55v-1.62c1.61 0 2.74-.16 3.37-.49a2.16 2.16 0 0 0 1.18-1.5c.15-.66.23-2.75.23-6.27v-8.58c0-3.35-.07-5.38-.2-6.1a2.25 2.25 0 0 0-1.12-1.61c-.62-.37-1.77-.55-3.46-.55v-1.62c2.58-.28 5.21-.82 7.9-1.61zm48.1 2.77h-8.68v17.4c0 2.68.12 4.48.35 5.4.23.93.73 1.67 1.5 2.24.76.56 1.57.84 2.44.84 1.68 0 3.15-.96 4.4-2.88l1.12.66a7.54 7.54 0 0 1-3.22 3.5 8.8 8.8 0 0 1-4.3 1.18c-1.7 0-3.18-.5-4.45-1.5a6.25 6.25 0 0 1-2.4-3.5c-.31-1.33-.47-3.67-.47-7.02v-16.32h-4.18v-1.61a7.3 7.3 0 0 0 5.17-2.43c1.52-1.57 2.5-3.77 2.91-6.6h1.13v9.03h8.68v1.61z"/><g transform="translate(1128 71)"><circle cx="20" cy="20" r="20" fill="#0057FF"/><path fill="#FFF" fill-rule="nonzero" d="M14.53 16.15v-2.02c1.9-.2 3.23-.5 3.98-.94.76-.43 1.32-1.46 1.69-3.08h2.08V31h-2.81V16.15h-4.94z"/></g><g fill-rule="nonzero"><path fill="#060A10" d="M688.12 193h-1.7v-10.16h-3.68v-1.36c.48 0 .95-.04 1.4-.11.45-.07.86-.21 1.23-.41a2.8 2.8 0 0 0 1.45-2.14h1.3V193zm5.66-2.22H696V193h-2.22v-2.22z"/><path fill="#0057FF" d="M704.58 178.72h1.7v5.34h.04c.28-.57.72-.99 1.32-1.25.6-.26 1.26-.39 1.98-.39a4.25 4.25 0 0 1 3.57 1.63c.4.5.69 1.08.89 1.73a7.3 7.3 0 0 1 .01 4.16 4.9 4.9 0 0 1-.88 1.71c-.4.49-.89.87-1.48 1.15a4.8 4.8 0 0 1-2.92.34 4.72 4.72 0 0 1-.93-.26c-.3-.12-.6-.28-.87-.49-.27-.2-.5-.46-.69-.77h-.04V193h-1.7v-14.28zm8 9.02c0-.48-.06-.95-.19-1.41a3.8 3.8 0 0 0-.58-1.23 2.84 2.84 0 0 0-2.43-1.18c-.57 0-1.06.11-1.46.34-.4.23-.73.52-.98.89s-.44.78-.55 1.25a6 6 0 0 0 .01 2.89c.12.47.31.89.57 1.25a2.91 2.91 0 0 0 2.51 1.2 2.9 2.9 0 0 0 1.47-.34c.4-.23.71-.53.95-.9s.41-.8.52-1.28c.1-.48.16-.97.16-1.48zm5.6-6.94h-1.7v-2.08h1.7v2.08zm-1.7 1.86h1.7V193h-1.7v-10.34zm6.7 0h2.06v1.5h-2.06v6.42c0 .2.02.36.05.48.03.12.1.21.19.28.1.07.22.11.39.13.17.02.38.03.65.03h.78v1.5h-1.3a6.1 6.1 0 0 1-1.13-.09 1.66 1.66 0 0 1-.76-.33c-.2-.16-.34-.39-.43-.68-.1-.3-.14-.68-.14-1.16v-6.58h-1.76v-1.5h1.76v-3.1h1.7v3.1zm4.32 8.12h2.22V193h-2.22v-2.22zm5.28-12.06h1.7V193h-1.7v-14.28zm8.4 15.66c-.2.5-.4.93-.59 1.28-.2.35-.4.63-.64.85-.23.22-.5.38-.78.48a3 3 0 0 1-.99.15c-.2 0-.4-.01-.6-.04-.2-.03-.4-.07-.58-.14v-1.56a2.85 2.85 0 0 0 1 .24c.35 0 .64-.08.87-.25.23-.17.41-.4.53-.71l.7-1.74-4.1-10.28h1.92l3.02 8.46h.04l2.9-8.46h1.8l-4.5 11.72zm10.22-16h1.46l-5.92 14.94h-1.44l5.9-14.94zm4.18 2.42h-1.7v-2.08h1.7v2.08zm-1.7 1.86h1.7V193h-1.7v-10.34zm4.34 0h1.6v1.52h.04a3.76 3.76 0 0 1 3.34-1.76c.64 0 1.22.13 1.74.4s.89.72 1.1 1.36c.35-.56.8-1 1.37-1.3.57-.3 1.19-.46 1.87-.46.52 0 .99.06 1.41.17.42.11.78.29 1.08.53.3.24.53.55.7.93.17.38.25.84.25 1.37V193h-1.7v-6.78c0-.32-.03-.62-.08-.9a1.84 1.84 0 0 0-.3-.73 1.5 1.5 0 0 0-.61-.49c-.26-.12-.6-.18-1.01-.18-.84 0-1.5.24-1.98.72a2.6 2.6 0 0 0-.72 1.92V193h-1.7v-6.78c0-.33-.03-.64-.09-.92a1.95 1.95 0 0 0-.31-.73c-.15-.2-.34-.37-.59-.48a2.29 2.29 0 0 0-.95-.17c-.5 0-.92.1-1.27.3a2.88 2.88 0 0 0-1.49 2.34V193h-1.7v-10.34zm17.12 0h1.7v1.4h.04c.28-.57.72-.99 1.32-1.25.6-.26 1.26-.39 1.98-.39a4.25 4.25 0 0 1 3.57 1.63c.4.5.69 1.08.89 1.73a7.3 7.3 0 0 1 .01 4.16 4.9 4.9 0 0 1-.88 1.71c-.4.49-.89.87-1.48 1.15a4.8 4.8 0 0 1-2.92.34 4.72 4.72 0 0 1-.93-.26c-.3-.12-.6-.28-.87-.49-.27-.2-.5-.46-.69-.77h-.04v5.32h-1.7v-14.28zm8 5.08c0-.48-.06-.95-.19-1.41a3.8 3.8 0 0 0-.58-1.23 2.84 2.84 0 0 0-2.43-1.18c-.57 0-1.06.11-1.46.34-.4.23-.73.52-.98.89s-.44.78-.55 1.25a6 6 0 0 0 .01 2.89c.12.47.31.89.57 1.25a2.91 2.91 0 0 0 2.51 1.2 2.9 2.9 0 0 0 1.47-.34c.4-.23.71-.53.95-.9s.41-.8.52-1.28c.1-.48.16-.97.16-1.48zm3.74-5.08h1.6v2.18h.04a4.6 4.6 0 0 1 1.52-1.86c.6-.4 1.36-.59 2.28-.56v1.8c-.68 0-1.26.1-1.74.28-.48.19-.87.46-1.16.82-.3.36-.5.8-.64 1.31-.13.51-.2 1.1-.2 1.77v4.6h-1.7v-10.34zm7.6 5.18c0 .63.08 1.18.25 1.67.17.49.4.9.69 1.22a3 3 0 0 0 2.28 1.01 3.07 3.07 0 0 0 2.97-2.23c.17-.49.25-1.04.25-1.67 0-.63-.08-1.18-.25-1.67a3.6 3.6 0 0 0-.69-1.23 2.94 2.94 0 0 0-2.28-1.02 3.07 3.07 0 0 0-2.28 1.02c-.3.33-.52.74-.69 1.23a5.14 5.14 0 0 0-.25 1.67zm-1.8 0c0-.76.1-1.47.32-2.13a4.52 4.52 0 0 1 2.54-2.87 5.25 5.25 0 0 1 2.16-.42c.83 0 1.55.14 2.17.42a4.55 4.55 0 0 1 2.53 2.87c.21.66.32 1.37.32 2.13 0 .76-.1 1.47-.32 2.12a4.84 4.84 0 0 1-.96 1.71c-.43.49-.95.87-1.57 1.14-.62.27-1.34.41-2.17.41-.81 0-1.53-.14-2.16-.41a4.42 4.42 0 0 1-1.58-1.14 4.84 4.84 0 0 1-.96-1.71 6.8 6.8 0 0 1-.32-2.12zm16.7 5.16h-1.82l-3.84-10.34h1.9l2.9 8.62h.04l2.82-8.62h1.78L809.58 193zm12.52-6.16c-.03-.4-.12-.78-.27-1.14a2.91 2.91 0 0 0-2.71-1.78 2.75 2.75 0 0 0-2.1.86c-.25.27-.45.58-.6.93-.15.35-.23.73-.26 1.13h5.94zm1.64 2.88a4.13 4.13 0 0 1-1.5 2.62 4.7 4.7 0 0 1-2.92.88c-.83 0-1.54-.13-2.15-.4a4.24 4.24 0 0 1-1.53-1.12 4.76 4.76 0 0 1-.93-1.72c-.2-.67-.32-1.4-.35-2.18 0-.79.12-1.5.36-2.16.24-.65.58-1.22 1.01-1.7a4.58 4.58 0 0 1 3.49-1.52c.92 0 1.68.19 2.29.57.6.38 1.1.86 1.46 1.45.37.59.62 1.23.76 1.92.14.7.2 1.35.17 1.98h-7.74c-.01.45.04.88.16 1.29a2.86 2.86 0 0 0 1.6 1.83c.41.19.9.28 1.46.28.72 0 1.31-.17 1.77-.5.46-.33.76-.84.91-1.52h1.68zm3.16-1.8c0 .48.06.95.19 1.41.13.46.32.87.58 1.23a2.84 2.84 0 0 0 2.43 1.18c.57 0 1.06-.11 1.46-.34.4-.23.73-.52.98-.89s.44-.78.55-1.25a6 6 0 0 0-.01-2.89 3.64 3.64 0 0 0-.57-1.25 2.91 2.91 0 0 0-2.51-1.2 2.7 2.7 0 0 0-2.42 1.24c-.24.37-.41.8-.52 1.28-.1.48-.16.97-.16 1.48zm8 5.08h-1.7v-1.4h-.04a2.5 2.5 0 0 1-1.32 1.24c-.6.25-1.26.38-1.98.38a4.3 4.3 0 0 1-3.57-1.62c-.4-.5-.69-1.07-.89-1.72a7.3 7.3 0 0 1-.01-4.16c.2-.65.49-1.22.88-1.71.4-.49.89-.87 1.48-1.16a4.7 4.7 0 0 1 2.93-.35 4.37 4.37 0 0 1 1.79.77c.27.2.5.46.69.77h.04v-5.32h1.7V193zm2.34-6.36h5.78v1.6h-5.78v-1.6zm8.12-3.98h1.7v1.4h.04c.28-.57.72-.99 1.32-1.25.6-.26 1.26-.39 1.98-.39a4.25 4.25 0 0 1 3.57 1.63c.4.5.69 1.08.89 1.73a7.3 7.3 0 0 1 .01 4.16 4.9 4.9 0 0 1-.88 1.71c-.4.49-.89.87-1.48 1.15a4.8 4.8 0 0 1-2.92.34 4.72 4.72 0 0 1-.93-.26c-.3-.12-.6-.28-.87-.49-.27-.2-.5-.46-.69-.77h-.04v5.32h-1.7v-14.28zm8 5.08c0-.48-.06-.95-.19-1.41a3.8 3.8 0 0 0-.58-1.23 2.84 2.84 0 0 0-2.43-1.18c-.57 0-1.06.11-1.46.34-.4.23-.73.52-.98.89s-.44.78-.55 1.25a6 6 0 0 0 .01 2.89c.12.47.31.89.57 1.25a2.91 2.91 0 0 0 2.51 1.2 2.9 2.9 0 0 0 1.47-.34c.4-.23.71-.53.95-.9s.41-.8.52-1.28c.1-.48.16-.97.16-1.48zm3.74-5.08h1.6v2.18h.04a4.6 4.6 0 0 1 1.52-1.86c.6-.4 1.36-.59 2.28-.56v1.8c-.68 0-1.26.1-1.74.28-.48.19-.87.46-1.16.82-.3.36-.5.8-.64 1.31-.13.51-.2 1.1-.2 1.77v4.6h-1.7v-10.34zm8.52-1.86h-1.7v-2.08h1.7v2.08zm-1.7 1.86h1.7V193h-1.7v-10.34zm4.34 0h1.6v1.64h.04a3.58 3.58 0 0 1 3.36-1.88c.68 0 1.25.1 1.7.28a2.8 2.8 0 0 1 1.69 1.97c.11.46.17.97.17 1.53v6.8h-1.7v-7c0-.64-.19-1.15-.56-1.52a2.08 2.08 0 0 0-1.54-.56c-.52 0-.97.08-1.35.24-.38.16-.7.39-.95.68-.25.3-.44.64-.57 1.03-.13.4-.19.82-.19 1.29V193h-1.7v-10.34zm13.48 0h2.06v1.5h-2.06v6.42c0 .2.02.36.05.48.03.12.1.21.19.28.1.07.22.11.39.13.17.02.38.03.65.03h.78v1.5h-1.3a6.1 6.1 0 0 1-1.13-.09 1.66 1.66 0 0 1-.76-.33c-.2-.16-.34-.39-.43-.68-.1-.3-.14-.68-.14-1.16v-6.58h-1.76v-1.5h1.76v-3.1h1.7v3.1z"/></g><g fill="#00F" fill-rule="nonzero"><path d="M84.82 98.7c0-1.02.35-1.88 1.07-2.61A3.5 3.5 0 0 1 88.47 95c1.01 0 1.87.36 2.57 1.09.7.73 1.05 1.6 1.05 2.6 0 1.03-.35 1.91-1.05 2.64a3.44 3.44 0 0 1-2.57 1.09c-1 0-1.87-.37-2.58-1.1a3.62 3.62 0 0 1-1.07-2.63zm6.78 14.69v20.07c0 3.07.05 5 .14 5.8.1.8.44 1.4 1.02 1.83.59.42 1.63.63 3.13.63h.74v1.62h-15.5v-1.62h1.19c1.66 0 2.75-.24 3.25-.72s.8-1.05.88-1.72c.08-.67.12-2.6.12-5.82v-8.72c0-3.37-.15-5.44-.47-6.19-.32-.75-.74-1.21-1.27-1.4a9.28 9.28 0 0 0-2.76-.28h-.94v-1.62c4.17-.42 7.4-1.04 9.7-1.86h.77zm16.49 0h.35a15.34 15.34 0 0 1 1.02 6.04 17 17 0 0 1 5.08-4.53c1.82-1 3.77-1.51 5.85-1.51 2.37 0 4.3.54 5.77 1.61a8.52 8.52 0 0 1 3.1 4.86 20.63 20.63 0 0 1 5.48-4.86 11.37 11.37 0 0 1 5.73-1.61c2.23 0 4.11.51 5.66 1.54 1.55 1.03 2.48 2.2 2.81 3.52.33 1.31.5 3.43.5 6.36v8.65c0 3.35.06 5.4.19 6.12.13.72.5 1.26 1.12 1.62.62.35 1.78.52 3.46.52v1.62h-14.37v-1.62c1.52 0 2.6-.17 3.21-.5.62-.35 1-.86 1.15-1.55.14-.7.2-2.76.2-6.2v-9.6c0-1.95-.1-3.42-.33-4.4a4.34 4.34 0 0 0-1.74-2.53 5.94 5.94 0 0 0-3.65-1.06c-1.53 0-3.06.52-4.6 1.55a19.65 19.65 0 0 0-4.62 4.68v11.35c0 3.07.05 5 .13 5.78.08.79.4 1.4.98 1.83.58.44 1.6.65 3.08.65v1.62h-13.92v-1.62c1.57 0 2.66-.16 3.28-.49.62-.33 1.01-.83 1.16-1.51.16-.68.23-2.77.23-6.26v-7.98c0-2.53-.1-4.36-.3-5.5-.2-1.14-.8-2.11-1.8-2.92-1.01-.8-2.27-1.21-3.77-1.21-1.45 0-2.93.47-4.45 1.4a19.99 19.99 0 0 0-4.62 4.22v12c0 3.16.05 5.12.14 5.9.1.77.45 1.36 1.06 1.75.6.4 1.7.6 3.27.6v1.62h-14.1v-1.62c1.55 0 2.63-.17 3.25-.5.62-.35 1-.86 1.14-1.54.14-.68.21-2.75.21-6.22v-8.61c0-3.28-.05-5.3-.15-6.03-.11-.74-.47-1.3-1.1-1.67-.62-.38-1.73-.56-3.35-.56v-1.62c3.33-.33 6.08-.86 8.26-1.58zm56.57 0h.95c.4 1.3.6 2.9.6 4.74a15.5 15.5 0 0 1 4.83-3.57 13.03 13.03 0 0 1 5.46-1.17c3.99 0 7.3 1.4 9.95 4.2 2.65 2.8 3.98 6.5 3.98 11.09 0 4.5-1.33 8.26-4 11.28-2.65 3.03-6.15 4.54-10.49 4.54a12.6 12.6 0 0 1-5.11-1.07 15.8 15.8 0 0 1-4.63-3.18v10.93c0 3.33.07 5.36.2 6.08.13.73.5 1.27 1.1 1.64.61.36 1.75.54 3.41.54v1.62h-15.04v-1.62h1.05c1.67 0 2.75-.24 3.25-.72s.8-1.05.88-1.72c.08-.67.13-2.6.13-5.82v-26.16c0-3.07-.05-5-.13-5.8-.08-.8-.41-1.4-1-1.83-.59-.42-1.63-.63-3.13-.63h-1.05v-1.62a58.8 58.8 0 0 0 8.79-1.75zm1.54 24.54a14.13 14.13 0 0 0 4.03 3.5 9.12 9.12 0 0 0 4.48 1.17c2.65 0 4.96-1.14 6.93-3.4 1.97-2.28 2.95-5.9 2.95-10.87 0-4.31-.95-7.54-2.85-9.67a8.8 8.8 0 0 0-6.78-3.2c-1.62 0-3.16.41-4.6 1.23a14.45 14.45 0 0 0-4.16 3.73v17.5zm39.06-17.2a12 12 0 0 1 3.89-5.23c1.79-1.41 3.54-2.11 5.25-2.11 1.55 0 2.77.48 3.66 1.44.89.96 1.33 1.94 1.33 2.95a2.5 2.5 0 0 1-.68 1.76 2.2 2.2 0 0 1-1.67.74c-1.17 0-2.06-.87-2.67-2.6-.42-1.18-1.06-1.76-1.9-1.76-1 0-2.22.68-3.62 2.05a9.52 9.52 0 0 0-2.7 4.28c-.4 1.47-.6 3.5-.6 6.08v5.13c0 3.07.03 5 .12 5.8.08.8.41 1.4 1 1.83.58.42 1.63.63 3.13.63h.98v1.62h-15.3v-1.62h.75c1.4 0 2.4-.2 3-.58.6-.38.96-.93 1.07-1.63.12-.7.18-2.72.18-6.05v-8.12c0-3.1-.04-5.03-.12-5.82a2.48 2.48 0 0 0-1-1.83c-.59-.43-1.63-.65-3.13-.65h-.74v-1.58c2.2-.26 5.08-.95 8.65-2.07.68 1.85 1.05 4.3 1.12 7.34zm15.58 8.16c0-4.4 1.47-8.1 4.43-11.06a14.78 14.78 0 0 1 10.9-4.44 14.8 14.8 0 0 1 10.93 4.46 15.06 15.06 0 0 1 4.43 11.04c0 4.85-1.5 8.67-4.5 11.44-3 2.78-6.62 4.17-10.87 4.17-4.24 0-7.85-1.41-10.84-4.24-2.99-2.82-4.48-6.61-4.48-11.37zm5.83.18c0 5.1.83 8.69 2.5 10.74 1.66 2.05 4 3.07 7 3.07 3.06 0 5.41-1.02 7.04-3.07s2.45-5.63 2.45-10.74c0-5.07-.81-8.68-2.43-10.83-1.62-2.16-3.97-3.24-7.07-3.24-3.07 0-5.42 1.08-7.04 3.22-1.63 2.15-2.45 5.76-2.45 10.85zm42.96 15.43h-2.04l-10.23-23.1c-1-2.22-1.8-3.64-2.39-4.25-.58-.61-1.54-.94-2.88-.99v-1.61h13v1.61c-1.42 0-2.4.12-2.93.36-.53.23-.79.68-.79 1.33 0 .52.47 1.77 1.4 3.76l7.78 17.48 7-15.58c1.1-2.48 1.65-4.1 1.65-4.85 0-1.57-1.18-2.4-3.52-2.5v-1.61h9.7v1.61c-1.2.07-2.2.57-3 1.5-.81.92-1.94 3-3.4 6.24l-9.35 20.6zm42.93-20.21h-20.08c-.09 1.38-.14 2.4-.14 3.09 0 5.06.8 8.86 2.38 11.4 1.58 2.55 3.94 3.82 7.08 3.82 4.27 0 7.29-1.9 9.07-5.73h1.69a9.83 9.83 0 0 1-4.47 5.6 13.8 13.8 0 0 1-7.27 2.03c-2.44 0-4.74-.62-6.91-1.85a14.75 14.75 0 0 1-5.33-5.22c-1.38-2.25-2.07-4.98-2.07-8.19 0-4.54 1.33-8.32 4-11.34a12.84 12.84 0 0 1 10.03-4.51c3.77 0 6.69 1.15 8.75 3.44 2.06 2.3 3.15 4.78 3.27 7.46zm-6.15-1.41c.07-.54.1-1.02.1-1.44 0-2.07-.6-3.66-1.8-4.8a6.24 6.24 0 0 0-4.46-1.7c-4.26 0-6.8 2.64-7.63 7.94h13.79zm35.93-5.27v-11.25c0-3.07-.05-5-.13-5.8-.08-.8-.41-1.41-1-1.83-.59-.43-1.63-.64-3.13-.64h-.74v-1.61c2.84-.07 5.95-.57 9.32-1.48h.74v38.7c0 3.36.06 5.4.17 6.12.12.73.5 1.27 1.11 1.62.62.35 1.78.53 3.46.53v1.62c-3.4.07-6.42.37-9.07.91-.28-1.1-.42-2.84-.42-5.2a19.3 19.3 0 0 1-5.36 3.9c-1.84.87-3.74 1.3-5.71 1.3-3.73 0-6.95-1.5-9.65-4.5a15.7 15.7 0 0 1-4.06-10.9c0-4.69 1.38-8.48 4.15-11.37a13.2 13.2 0 0 1 9.87-4.34c1.95 0 3.79.35 5.52 1.05 1.74.7 3.38 1.76 4.93 3.17zm0 2.03a18.11 18.11 0 0 0-4.66-3c-1.56-.67-3.13-1-4.7-1a8.42 8.42 0 0 0-6.62 3.06c-1.77 2.03-2.66 5.36-2.66 9.98 0 4.69.91 8.14 2.73 10.37a8.37 8.37 0 0 0 6.73 3.34c1.78 0 3.43-.42 4.96-1.26a13.8 13.8 0 0 0 4.22-3.8v-17.69zm12.97 6.5h17.26v5.32h-17.26v-5.31zm28.9-12.75h.95c.4 1.3.6 2.9.6 4.74a15.5 15.5 0 0 1 4.83-3.57 13.03 13.03 0 0 1 5.46-1.17c3.99 0 7.3 1.4 9.95 4.2 2.65 2.8 3.98 6.5 3.98 11.09 0 4.5-1.33 8.26-4 11.28-2.65 3.03-6.15 4.54-10.49 4.54a12.6 12.6 0 0 1-5.11-1.07 15.8 15.8 0 0 1-4.63-3.18v10.93c0 3.33.07 5.36.2 6.08.13.73.5 1.27 1.1 1.64.61.36 1.75.54 3.41.54v1.62h-15.04v-1.62h1.05c1.67 0 2.75-.24 3.25-.72s.8-1.05.88-1.72c.09-.67.13-2.6.13-5.82v-26.16c0-3.07-.04-5-.13-5.8-.08-.8-.41-1.4-1-1.83-.58-.42-1.63-.63-3.13-.63h-1.05v-1.62a58.8 58.8 0 0 0 8.79-1.75zm1.54 24.54a14.13 14.13 0 0 0 4.03 3.5 9.12 9.12 0 0 0 4.48 1.17c2.65 0 4.96-1.14 6.93-3.4 1.97-2.28 2.95-5.9 2.95-10.87 0-4.31-.95-7.54-2.85-9.67a8.8 8.8 0 0 0-6.78-3.2c-1.62 0-3.15.41-4.6 1.23a14.45 14.45 0 0 0-4.16 3.73v17.5zm39.06-17.2a12 12 0 0 1 3.89-5.23c1.79-1.41 3.54-2.11 5.25-2.11 1.55 0 2.77.48 3.66 1.44.89.96 1.34 1.94 1.34 2.95a2.5 2.5 0 0 1-.69 1.76 2.2 2.2 0 0 1-1.67.74c-1.17 0-2.06-.87-2.67-2.6-.42-1.18-1.06-1.76-1.9-1.76-1 0-2.22.68-3.62 2.05a9.52 9.52 0 0 0-2.7 4.28c-.4 1.47-.6 3.5-.6 6.08v5.13c0 3.07.03 5 .12 5.8.08.8.41 1.4 1 1.83.58.42 1.63.63 3.13.63h.98v1.62h-15.3v-1.62h.75c1.4 0 2.4-.2 3-.58.6-.38.96-.93 1.08-1.63.11-.7.17-2.72.17-6.05v-8.12c0-3.1-.04-5.03-.12-5.82a2.48 2.48 0 0 0-1-1.83c-.59-.43-1.63-.65-3.13-.65h-.74v-1.58c2.2-.26 5.08-.95 8.65-2.07.68 1.85 1.05 4.3 1.12 7.34zm19.1-22.04c0-1 .35-1.87 1.06-2.6a3.5 3.5 0 0 1 2.59-1.09c1 0 1.86.36 2.56 1.09.7.73 1.06 1.6 1.06 2.6 0 1.03-.35 1.91-1.06 2.64a3.44 3.44 0 0 1-2.56 1.09c-1 0-1.87-.37-2.59-1.1a3.62 3.62 0 0 1-1.07-2.63zm6.78 14.7v20.07c0 3.07.04 5 .14 5.8.1.8.43 1.4 1.02 1.83.58.42 1.63.63 3.13.63h.73v1.62h-15.5v-1.62h1.2c1.66 0 2.74-.24 3.25-.72.5-.48.8-1.05.88-1.72.08-.67.12-2.6.12-5.82v-8.72c0-3.37-.16-5.44-.47-6.19-.32-.75-.74-1.21-1.27-1.4a9.28 9.28 0 0 0-2.76-.28h-.95v-1.62c4.17-.42 7.4-1.04 9.7-1.86h.78zm16.31 0h.95c.54 1.45.84 3.43.91 5.94a18.4 18.4 0 0 1 5.31-4.47 12.2 12.2 0 0 1 5.8-1.47c2.3 0 4.18.48 5.65 1.44a6.48 6.48 0 0 1 2.83 3.53c.42 1.4.63 3.43.63 6.1v9c0 3.33.06 5.36.17 6.08a2.2 2.2 0 0 0 1.11 1.64c.62.36 1.76.54 3.43.54v1.62h-14.73v-1.62h.67c1.68 0 2.79-.24 3.3-.74.52-.49.81-1.06.88-1.72.07-.65.1-2.59.1-5.8v-9.28c0-2.27-.1-3.9-.33-4.87a4.56 4.56 0 0 0-1.8-2.58 5.9 5.9 0 0 0-3.7-1.13c-1.71 0-3.35.51-4.9 1.53a16.28 16.28 0 0 0-4.42 4.59v11.74c0 3.33.07 5.36.2 6.08.13.73.5 1.27 1.12 1.64.62.36 1.78.54 3.46.54v1.62H459.1v-1.62c1.62 0 2.74-.16 3.37-.49a2.16 2.16 0 0 0 1.18-1.5c.15-.66.23-2.75.23-6.27v-8.58c0-3.35-.06-5.38-.2-6.1a2.25 2.25 0 0 0-1.12-1.61c-.62-.37-1.77-.55-3.46-.55V115c2.58-.28 5.21-.82 7.91-1.61zm48.1 2.77h-8.69v17.4c0 2.68.12 4.48.35 5.4.24.93.73 1.67 1.5 2.24.76.56 1.57.84 2.44.84 1.69 0 3.15-.96 4.4-2.88l1.12.66a7.54 7.54 0 0 1-3.22 3.5 8.8 8.8 0 0 1-4.3 1.18c-1.7 0-3.17-.5-4.45-1.5a6.25 6.25 0 0 1-2.4-3.5c-.3-1.33-.47-3.67-.47-7.02v-16.32h-4.18v-1.61a7.3 7.3 0 0 0 5.17-2.43c1.52-1.57 2.5-3.77 2.92-6.6h1.12v9.03h8.68v1.61z"/><path d="M157.18 150.34H80v-4h77.18v4zm219.55 0H170.2v-4h206.53v4zm13.02-4h124.73v4H389.75v-4z"/></g><path fill="#060A10" fill-rule="nonzero" d="M632 122l14 7-14 7v-6h-78v-2h78v-6z"/></g></svg>